<svg width="130" height="77" viewBox="0 0 130 77" fill="none" xmlns="http://www.w3.org/2000/svg">
<path d="M109.21 76.2091C101.93 76.2091 96.01 70.2891 96.01 63.0091C96.01 55.7291 101.93 49.8091 109.21 49.8091C116.49 49.8091 122.41 55.7291 122.41 63.0091C122.41 70.2891 116.49 76.2091 109.21 76.2091ZM109.21 54.6091C104.58 54.6091 100.81 58.3791 100.81 63.0091C100.81 67.6391 104.58 71.4091 109.21 71.4091C113.84 71.4091 117.61 67.6391 117.61 63.0091C117.61 58.3791 113.84 54.6091 109.21 54.6091Z" fill="#1E1E1E"/>
<path d="M93.8101 60.6091H35.8C35.92 61.3891 36.0001 62.1891 36.0001 63.0091C36.0001 63.8291 35.92 64.6291 35.8 65.4091H93.8101C93.6901 64.6291 93.61 63.8291 93.61 63.0091C93.61 62.1891 93.6901 61.3891 93.8101 60.6091Z" fill="#1E1E1E"/>
<path d="M20.41 76.2091C13.13 76.2091 7.20996 70.2891 7.20996 63.0091C7.20996 55.7291 13.13 49.8091 20.41 49.8091C27.69 49.8091 33.61 55.7291 33.61 63.0091C33.61 70.2891 27.69 76.2091 20.41 76.2091ZM20.41 54.6091C15.78 54.6091 12.01 58.3791 12.01 63.0091C12.01 67.6391 15.78 71.4091 20.41 71.4091C25.04 71.4091 28.81 67.6391 28.81 63.0091C28.81 58.3791 25.04 54.6091 20.41 54.6091Z" fill="#1E1E1E"/>
<path d="M84.01 17.4092C72.63 17.4092 61.94 21.5292 53.9 28.9992C44.87 37.3892 32.04 42.6092 20.41 42.6092C15.97 42.6092 11.86 44.0492 8.51001 46.4692C5.89001 43.4192 6.00997 38.7992 8.90997 35.9092L21.82 22.9992C23.42 23.9792 25.25 24.5192 27.17 24.5192C29.91 24.5192 32.49 23.4492 34.43 21.5092L38.68 17.2592L35.57 14.1492L40.43 9.28916L37.88 6.73916L33.02 11.5992L29.72 8.29916L34.58 3.43916L32.03 0.88916L27.17 5.74916L24.15 2.72916L19.9 6.97916C16.48 10.3992 15.99 15.6392 18.41 19.5892L5.5 32.4992C0.79 37.2092 0.619961 44.7592 4.95996 49.6992C1.87996 53.2792 0 57.9192 0 62.9992V65.3992H4.79999V62.9992C4.79999 54.3992 11.8 47.3992 20.4 47.3992C33.2 47.3992 47.28 41.6892 57.16 32.5092C64.31 25.8592 73.84 22.1992 84 22.1992C106.5 22.1992 124.8 40.4992 124.8 62.9992V65.3992H129.6V62.9992C129.6 37.8592 109.14 17.3992 84 17.3992L84.01 17.4092ZM23.31 10.3892L24.17 9.53916L31.89 17.2592L31.03 18.1192C30 19.1492 28.63 19.7192 27.17 19.7192C25.71 19.7192 24.34 19.1492 23.31 18.1192C21.18 15.9792 21.18 12.5192 23.31 10.3892Z" fill="#1E1E1E"/>
</svg>
