<svg width="113" height="99" viewBox="0 0 113 99" fill="none" xmlns="http://www.w3.org/2000/svg">
<path d="M102.495 98.2093H35.2949V59.8093H102.495V98.2093ZM40.0949 93.4093H97.6949V64.6093H40.0949V93.4093Z" fill="#1E1E1E"/>
<path d="M66.4951 70.6094H56.895V73.0094H66.4951V70.6094Z" fill="#1E1E1E"/>
<path d="M52.0951 70.6093H48.4951V67.0093H46.0951V70.6093H42.4951V73.0093H46.0951V76.6093H48.4951V73.0093H52.0951V70.6093Z" fill="#1E1E1E"/>
<path d="M107.295 92.2093H104.895V57.4093H41.2949V55.0093H107.295V92.2093Z" fill="#1E1E1E"/>
<path d="M112.095 87.4092H109.695V52.6092H46.0947V50.2092H112.095V87.4092Z" fill="#1E1E1E"/>
<path d="M18.4951 31.5991C20.152 31.5991 21.4951 30.256 21.4951 28.5991C21.4951 26.9423 20.152 25.5991 18.4951 25.5991C16.8383 25.5991 15.4951 26.9423 15.4951 28.5991C15.4951 30.256 16.8383 31.5991 18.4951 31.5991Z" fill="#1E1E1E"/>
<path d="M18.1752 23.2392L4.98517 0.38916L0.825195 2.78916L14.0151 25.6392C14.4651 24.9592 15.0452 24.3592 15.7952 23.9292C16.5452 23.4992 17.3552 23.2892 18.1652 23.2392H18.1752Z" fill="#1E1E1E"/>
<path d="M16.0952 42.3691V98.2091H20.8952V34.0591L16.0952 42.3691Z" fill="#1E1E1E"/>
<path d="M14.0151 31.5791L0.825195 54.4291L4.98517 56.8291L18.1752 33.9891C16.5352 33.8891 14.9851 33.0291 14.0251 31.5791H14.0151Z" fill="#1E1E1E"/>
<path d="M49.7054 26.2092H23.3154C24.0854 27.7692 24.0554 29.5392 23.3254 31.0092H49.7054V26.2092Z" fill="#1E1E1E"/>
</svg>
