<svg width="130" height="76" viewBox="0 0 130 76" fill="none" xmlns="http://www.w3.org/2000/svg">
<path d="M66.3199 65.6091H63.9199V75.2091H66.3199V65.6091Z" fill="#1E1E1E"/>
<path d="M76.1541 60.5402L74.457 62.2373L81.2453 69.0255L82.9423 67.3285L76.1541 60.5402Z" fill="#1E1E1E"/>
<path d="M54.0905 60.5453L47.3022 67.3335L48.9993 69.0306L55.7875 62.2423L54.0905 60.5453Z" fill="#1E1E1E"/>
<path d="M50.7198 15.209H0.319824V48.809H50.7198V15.209ZM45.9198 44.009H5.11982V20.009H45.9198V44.009Z" fill="#1E1E1E"/>
<path d="M16.72 41.6092H19.12V33.2092H31.92V41.6092H34.32V33.2092H43.52V30.8092H34.32V22.4092H31.92V30.8092H19.12V22.4092H16.72V30.8092H7.52002V33.2092H16.72V41.6092Z" fill="#1E1E1E"/>
<path d="M79.52 15.209V48.809H129.92V15.209H79.52ZM125.12 44.009H84.32V20.009H125.12V44.009Z" fill="#1E1E1E"/>
<path d="M95.9197 41.6092H98.3197V33.2092H111.12V41.6092H113.52V33.2092H122.72V30.8092H113.52V22.4092H111.12V30.8092H98.3197V22.4092H95.9197V30.8092H86.7197V33.2092H95.9197V41.6092Z" fill="#1E1E1E"/>
<path d="M57.9196 38.7591V12.8091C57.9196 8.83908 61.1496 5.60908 65.1196 5.60908C69.0896 5.60908 72.3196 8.83908 72.3196 12.8091V38.7591C74.2396 39.8791 75.8896 41.4191 77.1196 43.2691V12.8091C77.1196 6.18908 71.7396 0.809082 65.1196 0.809082C58.4996 0.809082 53.1196 6.18908 53.1196 12.8091V43.2691C54.3496 41.4191 55.9996 39.8791 57.9196 38.7591Z" fill="#1E1E1E"/>
<path d="M65.1196 39.209C58.4896 39.209 53.1196 44.579 53.1196 51.209C53.1196 57.839 58.4896 63.209 65.1196 63.209C71.7496 63.209 77.1196 57.839 77.1196 51.209C77.1196 44.579 71.7496 39.209 65.1196 39.209ZM65.1196 58.409C61.1396 58.409 57.9196 55.189 57.9196 51.209C57.9196 47.229 61.1396 44.009 65.1196 44.009C69.0996 44.009 72.3196 47.229 72.3196 51.209C72.3196 55.189 69.0996 58.409 65.1196 58.409Z" fill="#1E1E1E"/>
</svg>
