<svg width="121" height="97" viewBox="0 0 121 97" fill="none" xmlns="http://www.w3.org/2000/svg">
<path d="M27.1799 86.609C17.9199 86.609 10.3799 79.069 10.3799 69.809C10.3799 60.549 17.9199 53.009 27.1799 53.009C36.4399 53.009 43.9799 60.549 43.9799 69.809C43.9799 79.069 36.4399 86.609 27.1799 86.609ZM27.1799 57.809C20.5599 57.809 15.1799 63.189 15.1799 69.809C15.1799 76.429 20.5599 81.809 27.1799 81.809C33.7999 81.809 39.1799 76.429 39.1799 69.809C39.1799 63.189 33.7999 57.809 27.1799 57.809Z" fill="#1E1E1E"/>
<path d="M120.78 96.209H72.7798V0.208984H120.78V96.209ZM77.5798 91.409H115.98V5.00898H77.5798V91.409Z" fill="#1E1E1E"/>
<path d="M0.779785 96.2089H72.7798V91.4089H5.57979V48.2089H72.7798V43.4089H0.779785V96.2089Z" fill="#1E1E1E"/>
<path d="M67.9797 69.8089C67.9797 65.8989 69.8697 62.4189 72.7797 60.2289V54.6489C67.1097 57.3489 63.1797 63.1189 63.1797 69.8089C63.1797 76.4989 67.1097 82.2589 72.7797 84.9689V79.3889C69.8697 77.1989 67.9797 73.7289 67.9797 69.8089Z" fill="#1E1E1E"/>
<path d="M96.7797 86.6089C98.7679 86.6089 100.38 84.9972 100.38 83.0089C100.38 81.0207 98.7679 79.4089 96.7797 79.4089C94.7915 79.4089 93.1797 81.0207 93.1797 83.0089C93.1797 84.9972 94.7915 86.6089 96.7797 86.6089Z" fill="#1E1E1E"/>
<path d="M60.94 67.4089H46.21C46.31 68.1989 46.38 68.9989 46.38 69.8089C46.38 70.6189 46.31 71.4189 46.21 72.2089H60.94C60.84 71.4189 60.77 70.6189 60.77 69.8089C60.77 68.9989 60.84 68.1989 60.94 67.4089Z" fill="#1E1E1E"/>
</svg>
