<svg width="116" height="73" viewBox="0 0 116 73" fill="none" xmlns="http://www.w3.org/2000/svg">
<path d="M26.9401 72.209C12.3801 72.209 0.540039 60.369 0.540039 45.809C0.540039 31.249 12.3801 19.409 26.9401 19.409C29.0201 19.409 31.0901 19.659 33.1201 20.159C39.2001 7.97898 51.6201 0.208984 65.3401 0.208984C85.1901 0.208984 101.34 16.359 101.34 36.209C101.34 38.719 101.08 41.169 100.59 43.539C100.05 43.469 99.5001 43.409 98.9401 43.409C97.7701 43.409 96.65 43.589 95.58 43.899C96.21 41.439 96.54 38.859 96.54 36.209C96.54 19.009 82.5401 5.00899 65.3401 5.00899C52.8401 5.00899 41.58 12.449 36.64 23.969L35.7701 25.989L33.6801 25.299C31.4801 24.569 29.2101 24.199 26.9301 24.199C15.0201 24.199 5.33005 33.889 5.33005 45.799C5.33005 57.709 15.0201 67.399 26.9301 67.399C31.2901 67.399 35.34 66.089 38.7401 63.859C39.9401 65.009 41.2001 66.089 42.5301 67.069C38.1601 70.289 32.7601 72.189 26.9301 72.189L26.9401 72.209Z" fill="#1E1E1E"/>
<path d="M65.34 72.2091C55.82 72.2091 47.16 68.4891 40.71 62.4291C41.94 61.4091 43.05 60.2391 44.03 58.9691C49.61 64.1991 57.11 67.4091 65.34 67.4091C72.51 67.4091 79.2599 65.0291 84.8499 60.5291L87.0699 58.7491L88.46 61.2291C90.59 65.0391 94.6 67.4091 98.94 67.4091C105.56 67.4091 110.94 62.0291 110.94 55.4091C110.94 50.1891 107.58 45.7491 102.92 44.0991C103.25 42.5291 103.47 40.9191 103.61 39.2791C110.61 41.3091 115.74 47.7591 115.74 55.3991C115.74 64.6591 108.2 72.1991 98.94 72.1991C93.77 72.1991 88.93 69.8091 85.77 65.8191C79.78 69.9491 72.62 72.1991 65.34 72.1991V72.2091Z" fill="#1E1E1E"/>
</svg>
