<svg width="94" height="66" viewBox="0 0 94 66" fill="none" xmlns="http://www.w3.org/2000/svg">
<path d="M80.22 65.3099C72.71 65.3099 66.59 59.1999 66.59 51.6799C66.59 44.1599 72.7 38.0499 80.22 38.0499C87.73 38.0499 93.85 44.1599 93.85 51.6799C93.85 59.1999 87.74 65.3099 80.22 65.3099ZM80.22 42.0599C74.91 42.0599 70.59 46.3799 70.59 51.6899C70.59 56.9999 74.91 61.3199 80.22 61.3199C85.53 61.3199 89.85 56.9999 89.85 51.6899C89.85 46.3799 85.53 42.0599 80.22 42.0599Z" fill="#1E1E1E"/>
<path d="M17.79 61.3099C13.91 61.3099 10.57 58.9999 9.04001 55.6799H4.76001C6.47001 61.2499 11.66 65.3099 17.79 65.3099C23.91 65.3099 29.1 61.2499 30.82 55.6799H26.54C25.01 58.9999 21.67 61.3099 17.79 61.3099Z" fill="#1E1E1E"/>
<path d="M80.22 32.0199C79.92 32.0199 79.63 32.0499 79.34 32.0599L63.39 0.689941H56.16V34.7199C56.16 39.1299 52.57 42.7199 48.16 42.7199C43.75 42.7199 40.16 39.1299 40.16 34.7199V25.7499H22.26C15.88 25.7499 10.72 27.7699 6.92001 31.7499C-0.329994 39.3399 0.140006 51.2899 0.160006 51.7899L0.250006 53.6999H64.56V51.6999C64.56 43.0599 71.59 36.0299 80.23 36.0299C83.39 36.0299 86.44 36.9699 89.04 38.7399L91.29 35.4399C88.02 33.1999 84.19 32.0199 80.22 32.0199ZM60.66 49.6899H4.19001C4.37001 46.3099 5.31001 39.1999 9.83001 34.4799C12.84 31.3299 17.02 29.7399 22.26 29.7399H36.16V34.7099C36.16 41.3299 41.54 46.7099 48.16 46.7099C54.78 46.7099 60.16 41.3299 60.16 34.7099V9.68994V7.68994V4.68994H60.93L75.17 32.6999C67.4 34.7599 61.49 41.4799 60.66 49.6899Z" fill="#1E1E1E"/>
<path d="M42.16 19.74H22.16V23.74H42.16V19.74Z" fill="#1E1E1E"/>
<path d="M52.31 5.57999C53.71 5.16999 54.45 3.81999 54.06 2.46999C53.69 1.13999 52.36 0.389986 50.96 0.799986C49.59 1.19999 48.89 2.53999 49.26 3.85999C49.64 5.21999 50.94 5.97999 52.31 5.57999Z" fill="#1E1E1E"/>
</svg>
